<?xml version="1.0" encoding="UTF-8"?>
<svg xmlns="http://www.w3.org/2000/svg" xmlns:xlink="http://www.w3.org/1999/xlink" width="75px" height="150px" viewBox="0 0 128 256" version="1.1">
<g id="surface1">
<path style=" stroke:none;fill-rule:nonzero;fill:rgb(0%,0%,0%);fill-opacity:1;" d="M 128 224 C 128 232.835938 120.835938 240 112 240 L 16 240 C 7.164062 240 0 232.835938 0 224 C 0 215.164062 7.164062 208 16 208 L 48 208 L 48 61.898438 L 24.875 77.300781 C 17.511719 82.25 7.59375 80.199219 2.6875 72.898438 C -2.210938 65.550781 -0.226562 55.601562 7.125 50.699219 L 55.125 18.699219 C 60.039062 15.425781 66.351562 15.105469 71.546875 17.902344 C 76.75 20.683594 80 26.109375 80 32.003906 L 80 208.003906 L 112 208.003906 C 120.851562 208 128 215.148438 128 224 Z M 128 224 "/>
</g>
</svg>
