<?xml version="1.0" encoding="UTF-8"?>
<svg xmlns="http://www.w3.org/2000/svg" xmlns:xlink="http://www.w3.org/1999/xlink" width="75px" height="150px" viewBox="0 0 160 256" version="1.1">
<g id="surface1">
<path style=" stroke:none;fill-rule:nonzero;fill:rgb(0%,0%,0%);fill-opacity:1;" d="M 160 224 C 160 232.835938 152.835938 240 144 240 L 16 240 C 9.460938 240 3.585938 236.023438 1.148438 229.953125 C -1.28125 223.894531 0.21875 216.953125 4.945312 212.441406 L 101.746094 119.890625 C 117.425781 104.804688 118.722656 79.890625 104.652344 63.191406 C 97.199219 54.34375 86.722656 49.128906 75.167969 48.5 C 63.699219 47.914062 52.648438 51.949219 44.265625 59.949219 L 26.761719 75.851562 C 20.21875 81.804688 10.09375 81.296875 4.160156 74.765625 C -1.78125 68.25 -1.296875 58.101562 5.238281 52.148438 L 22.464844 36.5 C 36.800781 22.828125 56.660156 15.445312 76.914062 16.558594 C 97.078125 17.652344 116.109375 27.140625 129.113281 42.574219 C 154.015625 72.101562 151.714844 116.226562 123.890625 142.976562 L 55.890625 207.976562 L 144 207.976562 C 152.851562 208 160 215.148438 160 224 Z M 160 224 "/>
</g>
</svg>
