<?xml version="1.0" encoding="UTF-8"?>
<svg xmlns="http://www.w3.org/2000/svg" xmlns:xlink="http://www.w3.org/1999/xlink" width="75px" height="150px" viewBox="0 0 160 256" version="1.1">
<g id="surface1">
<path style=" stroke:none;fill-rule:nonzero;fill:rgb(0%,0%,0%);fill-opacity:1;" d="M 160 172 C 160 209.488281 129.488281 240 92 240 L 51.800781 240 C 28.628906 240 8.144531 225.234375 1.25 203.261719 C -1.546875 194.875 2.992188 185.820312 11.375 183.023438 C 19.75 180.21875 28.820312 184.765625 31.609375 193.148438 C 34.570312 202.035156 42.851562 208 52.226562 208 L 92 208 C 111.851562 208 128 191.851562 128 172 C 128 152.148438 111.851562 136 92 136 L 40 136 C 33.398438 136 27.476562 131.953125 25.085938 125.796875 C 22.695312 119.648438 24.328125 112.648438 29.191406 108.199219 L 94.890625 48 L 16 48 C 7.164062 48 0 40.835938 0 32 C 0 23.164062 7.164062 16 16 16 L 136 16 C 142.601562 16 148.523438 20.046875 150.914062 26.203125 C 153.304688 32.355469 151.671875 39.339844 146.8125 43.800781 L 81.113281 104 L 92 104 C 129.050781 104 160 134.5 160 172 Z M 160 172 "/>
</g>
</svg>
