<?xml version="1.0" encoding="UTF-8"?>
<svg xmlns="http://www.w3.org/2000/svg" xmlns:xlink="http://www.w3.org/1999/xlink" width="75px" height="150px" viewBox="0 0 192 256" version="1.1">
<g id="surface1">
<path style=" stroke:none;fill-rule:nonzero;fill:rgb(0%,0%,0%);fill-opacity:1;" d="M 192 167.101562 C 192 175.933594 184.835938 183.101562 176 183.101562 L 160 183.101562 L 160 223.988281 C 160 232.824219 152.835938 239.988281 144 239.988281 C 135.164062 239.988281 128 232.824219 128 223.988281 L 128 183.101562 L 16 183.101562 C 10.515625 183.101562 5.414062 180.289062 2.476562 175.65625 C -0.453125 171.023438 -0.804688 165.210938 1.539062 160.25 L 65.539062 25.148438 C 69.300781 17.164062 78.898438 13.78125 86.851562 17.546875 C 94.835938 21.324219 98.238281 30.875 94.460938 38.859375 L 41.28125 151.101562 L 128 151.101562 L 128 80 C 128 71.164062 135.164062 64 144 64 C 152.835938 64 160 71.164062 160 80 L 160 151.101562 L 176 151.101562 C 184.851562 151.101562 192 158.300781 192 167.101562 Z M 192 167.101562 "/>
</g>
</svg>
