<?xml version="1.0" encoding="UTF-8"?>
<svg xmlns="http://www.w3.org/2000/svg" xmlns:xlink="http://www.w3.org/1999/xlink" width="75px" height="150px" viewBox="0 0 160 256" version="1.1">
<g id="surface1">
<path style=" stroke:none;fill-rule:nonzero;fill:rgb(0%,0%,0%);fill-opacity:1;" d="M 160 172.300781 C 160 209.628906 129.636719 240 92.300781 240 L 52.351562 240 C 28.945312 240 8.238281 225.085938 0.851562 202.886719 C -1.945312 194.5 2.585938 185.441406 10.964844 182.644531 C 19.378906 179.832031 28.421875 184.378906 31.203125 192.761719 C 34.242188 201.875 42.746094 208 52.355469 208 L 92.328125 208 C 112.011719 208 128.023438 191.984375 128.023438 172.304688 C 128.023438 152.625 112.011719 136.613281 92.328125 136.613281 L 16 136.613281 C 11.257812 136.613281 6.765625 134.511719 3.71875 130.875 C 0.679688 127.25 -0.585938 122.449219 0.257812 117.800781 L 16.257812 29.199219 C 17.636719 21.546875 24.261719 16.003906 32 16.003906 L 128 16.007812 C 136.835938 16.007812 144 23.171875 144 32.007812 C 144 40.84375 136.835938 48.007812 128 48.007812 L 45.363281 48.007812 L 35.148438 104.601562 L 92.300781 104.601562 C 129.648438 104.601562 160 134.550781 160 172.300781 Z M 160 172.300781 "/>
</g>
</svg>
