<?xml version="1.0" encoding="UTF-8"?>
<svg xmlns="http://www.w3.org/2000/svg" xmlns:xlink="http://www.w3.org/1999/xlink" width="75px" height="150px" viewBox="0 0 160 256" version="1.1">
<g id="surface1">
<path style=" stroke:none;fill-rule:nonzero;fill:rgb(0%,0%,0%);fill-opacity:1;" d="M 83.851562 80.398438 L 116.175781 42.371094 C 121.910156 35.644531 121.082031 25.539062 114.347656 19.824219 C 111.351562 17.253906 107.648438 16.003906 104 16.003906 C 99.46875 16.003906 94.96875 17.921875 91.808594 21.648438 C 19.035156 107.25 0 122.75 0 160 C 0 204.109375 35.890625 240 80 240 C 124.109375 240 160 204.109375 160 160 C 160 117.199219 126.148438 82.449219 83.851562 80.398438 Z M 80 208 C 53.53125 208 32 186.46875 32 160 C 32 133.53125 53.53125 112.449219 80 112.449219 C 106.46875 112.449219 128 133.980469 128 160 C 128 186.019531 106.449219 208 80 208 Z M 80 208 "/>
</g>
</svg>
