<?xml version="1.0" encoding="UTF-8"?>
<svg xmlns="http://www.w3.org/2000/svg" xmlns:xlink="http://www.w3.org/1999/xlink" width="75px" height="150px" viewBox="0 0 160 256" version="1.1">
<g id="surface1">
<path style=" stroke:none;fill-rule:nonzero;fill:rgb(0%,0%,0%);fill-opacity:1;" d="M 133.75 124.601562 C 145 113.050781 152 97.351562 152 80 C 152 44.710938 123.289062 16 88 16 L 72 16 C 36.710938 16 8 44.710938 8 80 C 8 97.351562 14.996094 113.058594 26.238281 124.59375 C 10.414062 136.25 0 154.898438 0 176 C 0 211.289062 28.710938 240 64 240 L 96 240 C 131.289062 240 160 211.289062 160 176 C 160 154.898438 149.601562 136.25 133.75 124.601562 Z M 72 48.003906 L 88 48.003906 C 105.648438 48.003906 120 62.355469 120 80.003906 C 120 97.65625 105.648438 112.003906 88 112.003906 L 72 112.003906 C 54.351562 112.003906 40 97.65625 40 80.003906 C 40 62.355469 54.351562 48.003906 72 48.003906 Z M 96 208 L 64 208 C 46.351562 208 32 193.648438 32 176 C 32 158.351562 46.351562 144 64 144 L 96 144 C 113.648438 144 128 158.351562 128 176 C 128 193.648438 113.648438 208 96 208 Z M 96 208 "/>
</g>
</svg>
