<?xml version="1.0" encoding="UTF-8"?>
<svg xmlns="http://www.w3.org/2000/svg" xmlns:xlink="http://www.w3.org/1999/xlink" width="75px" height="150px" viewBox="0 0 160 256" version="1.1">
<g id="surface1">
<path style=" stroke:none;fill-rule:nonzero;fill:rgb(0%,0%,0%);fill-opacity:1;" d="M 80 16.003906 C 35.890625 16.003906 0 51.894531 0 96.003906 C 0 138.789062 33.855469 173.554688 76.148438 175.605469 L 43.824219 213.636719 C 38.089844 220.359375 38.917969 230.464844 45.652344 236.179688 C 48.652344 238.742188 52.34375 239.988281 56.011719 239.988281 C 60.542969 239.988281 65.042969 238.078125 68.203125 234.351562 C 140.949219 148.75 160 133.300781 160 96 C 160 51.898438 124.101562 16.003906 80 16.003906 Z M 80 144 C 53.53125 144 32 122.46875 32 96.449219 C 32 70.429688 53.53125 48.449219 80 48.449219 C 106.46875 48.449219 128 69.980469 128 96.449219 C 128 122.921875 106.449219 144 80 144 Z M 80 144 "/>
</g>
</svg>
