<?xml version="1.0" encoding="UTF-8"?>
<svg xmlns="http://www.w3.org/2000/svg" xmlns:xlink="http://www.w3.org/1999/xlink" width="150px" height="150px" viewBox="0 0 256 256" version="1.1">
<g id="surface1">
<path style=" stroke:none;fill-rule:nonzero;fill:rgb(0%,0%,0%);fill-opacity:1;" d="M 168.300781 78.25 C 163.648438 74.050781 161.300781 68.25 163.550781 62.648438 L 178.800781 24.589844 C 181.351562 18.136719 188.898438 15.179688 194.851562 18.816406 C 205.449219 25.316406 215 33.308594 223.25 42.511719 C 227.851562 47.605469 226.449219 55.449219 220.75 59.25 L 186.949219 81.75 C 181.800781 85.199219 174.898438 84.050781 170.25 79.949219 C 169.601562 79.351562 168.949219 78.800781 168.300781 78.25 Z M 148.851562 56.300781 C 146.601562 61.550781 140.449219 64.898438 134.351562 64.300781 C 132.300781 64.101562 130.148438 64 128 64 C 125.851562 64 123.699219 64.101562 121.648438 64.300781 C 115.550781 64.898438 109.398438 61.550781 107.148438 56.300781 L 91.550781 18.410156 C 89.398438 12.011719 92.75 4.714844 99.050781 3.1875 C 108.648438 1.101562 118.199219 0 128 0 C 137.800781 0 147.351562 1.101562 156.5 3.1875 C 163.25 4.714844 166.601562 12.011719 164 18.410156 Z M 61.148438 18.816406 C 67.101562 15.179688 74.648438 18.136719 77.199219 24.589844 L 92.449219 62.648438 C 94.699219 68.25 92.351562 74.050781 87.699219 78.25 C 87.050781 78.800781 86.398438 79.351562 85.75 79.949219 C 81.101562 84.050781 74.199219 85.199219 69.050781 81.75 L 35.261719 59.25 C 29.566406 55.449219 28.160156 47.605469 32.730469 42.511719 C 40.996094 33.308594 50.550781 25.316406 61.148438 18.816406 Z M 189.75 111.050781 C 188.148438 105.351562 189.851562 99.050781 194.75 95.800781 L 229.050781 72.898438 C 234.851562 69.050781 242.800781 70.949219 245.601562 77.351562 C 250.800781 89.398438 254.199219 102.398438 255.449219 116 C 256.050781 122.601562 250.648438 127.550781 244 127.550781 L 204 127.550781 C 197.351562 127.550781 192.101562 122.601562 190.898438 116.050781 C 190.550781 114.351562 190.199219 112.699219 189.75 111.050781 Z M 61.25 95.800781 C 66.148438 99.050781 67.851562 105.351562 66.25 111.050781 C 65.800781 112.699219 65.449219 114.351562 65.101562 116.050781 C 63.898438 122.601562 58.648438 128 52 128 L 12 128 C 5.375 128 -0.0585938 122.601562 0.554688 116 C 1.816406 102.398438 5.214844 89.398438 10.410156 77.351562 C 13.179688 70.949219 21.128906 69.050781 26.953125 72.898438 Z M 52 144 C 58.648438 144 64 149.351562 64 156 L 64 180 C 64 186.648438 58.648438 192 52 192 L 12 192 C 5.375 192 0 186.648438 0 180 L 0 156 C 0 149.351562 5.375 144 12 144 Z M 244 144 C 250.648438 144 256 149.351562 256 156 L 256 180 C 256 186.648438 250.648438 192 244 192 L 204 192 C 197.351562 192 192 186.648438 192 180 L 192 156 C 192 149.351562 197.351562 144 204 144 Z M 52 208 C 58.648438 208 64 213.351562 64 220 L 64 244 C 64 250.648438 58.648438 256 52 256 L 12 256 C 5.375 256 0 250.648438 0 244 L 0 220 C 0 213.351562 5.375 208 12 208 Z M 244 208 C 250.648438 208 256 213.351562 256 220 L 256 244 C 256 250.648438 250.648438 256 244 256 L 204 256 C 197.351562 256 192 250.648438 192 244 L 192 220 C 192 213.351562 197.351562 208 204 208 Z M 136 232 C 136 236.398438 132.398438 240 128 240 C 123.601562 240 120 236.398438 120 232 L 120 96 C 120 91.601562 123.601562 88 128 88 C 132.398438 88 136 91.601562 136 96 Z M 104 232 C 104 236.398438 100.398438 240 96 240 C 91.601562 240 88 236.398438 88 232 L 88 112 C 88 107.601562 91.601562 104 96 104 C 100.398438 104 104 107.601562 104 112 Z M 168 232 C 168 236.398438 164.398438 240 160 240 C 155.601562 240 152 236.398438 152 232 L 152 112 C 152 107.601562 155.601562 104 160 104 C 164.398438 104 168 107.601562 168 112 Z M 168 232 "/>
</g>
</svg>
